HIERARCHY
ROOT Hips
{
  OFFSET -101.901 98.7387 -416.281
  CHANNELS 6 Xposition Yposition Zposition Zrotation Xrotation Yrotation
  JOINT RightUpLeg
  {
    OFFSET -8.9458 -8.66707 0.101652
    CHANNELS 3 Zrotation Xrotation Yrotation
    JOINT RightLeg
    {
      OFFSET 0 -44.4227 1.3727
      CHANNELS 3 Zrotation Xrotation Yrotation
      JOINT RightFoot
      {
        OFFSET 0.253549 -42.0924 -1.46059
        CHANNELS 3 Zrotation Xrotation Yrotation
        JOINT RightToes
        {
          OFFSET 0.04 -4.41509 8.4991
          CHANNELS 3 Zrotation Xrotation Yrotation
          End Site
          {
            OFFSET -0.08 -0.137448 9.77979
          }
        }
      }
    }
  }
  JOINT Spine
  {
    OFFSET 0 11.8905 0
    CHANNELS 3 Zrotation Xrotation Yrotation
    JOINT Spine1
    {
      OFFSET 0 25.6574 0.127663
      CHANNELS 3 Zrotation Xrotation Yrotation
      JOINT HEad
      {
        OFFSET 0 8.73416 0.011341
        CHANNELS 3 Zrotation Xrotation Yrotation
        End Site
        {
          OFFSET -0.29 12.7742 2.51395
        }
      }
      JOINT LeftShoulder1
      {
        OFFSET 8.99 -0.362252 -0.22
        CHANNELS 3 Zrotation Xrotation Yrotation
        JOINT LeftArm
        {
          OFFSET 10.2827 -0.00338 0.322123
          CHANNELS 3 Zrotation Xrotation Yrotation
          JOINT LeftForeArm
          {
            OFFSET 32.7669 0.099144 -1.42434
            CHANNELS 3 Zrotation Xrotation Yrotation
            JOINT LeftHand
            {
              OFFSET 27.5643 0.085362 1.02216
              CHANNELS 3 Zrotation Xrotation Yrotation
              End Site
              {
                OFFSET 16.7443 -0.6 1.50291
              }
            }
          }
        }
      }
      JOINT RightShoulder
      {
        OFFSET -8.99 -0.362252 -0.22
        CHANNELS 3 Zrotation Xrotation Yrotation
        JOINT RightArm
        {
          OFFSET -10.2827 -0.00338 0.322123
          CHANNELS 3 Zrotation Xrotation Yrotation
          JOINT RightForeArm
          {
            OFFSET -32.8971 0.099144 -1.42434
            CHANNELS 3 Zrotation Xrotation Yrotation
            JOINT RightHand
            {
              OFFSET -27.4921 0.085362 1.02216
              CHANNELS 3 Zrotation Xrotation Yrotation
              End Site
              {
                OFFSET -16.6312 -0.6 1.50291
              }
            }
          }
        }
      }
    }
  }
  JOINT LeftUpLeg
  {
    OFFSET 8.9458 -8.66707 0.101652
    CHANNELS 3 Zrotation Xrotation Yrotation
    JOINT LeftLeg
    {
      OFFSET 0 -44.4227 1.3727
      CHANNELS 3 Zrotation Xrotation Yrotation
      JOINT LeftFoot
      {
        OFFSET -0.253549 -42.0924 -1.46059
        CHANNELS 3 Zrotation Xrotation Yrotation
        JOINT LeftToes
        {
          OFFSET -0.04 -4.41509 8.4991
          CHANNELS 3 Zrotation Xrotation Yrotation
          End Site
          {
            OFFSET 0.08 -0.047448 9.77979
          }
        }
      }
    }
  }
}
MOTION
Frames:	21
Frame Time:	0.0166667
-83.2006 97.4041 -453.096 -14.7426 -3.81044 -75.7727 -22.727 8.2691 -2.96184 24.5834 34.1684 -32.423 -2.21728 -0.46674 -0.563746 0.0462048 0.000533403 0.662642 6.82268 13.1524 -18.9763 -0.0192213 0.0275853 0.0198381 -17.6657 15.4594 20.048 -1.59028e-015 4.96962e-017 -0 142.639 -76.5396 -169.014 -93.2792 -2.03609 1.7251 -35.5484 84.7482 -23.102 2.95777 16.5855 11.179 110.165 -6.0987 71.552 32.7012 59.9445 69.3322 17.62 24.1573 5.02182 20.8779 -17.7893 -28.0135 -19.6416 19.3389 65.339 -27.9266 -3.32219 -1.41885 -1.18447e-009 1.5602e-007 -4.87132e-009 
-83.991 96.7365 -452.197 -15.2499 -3.24307 -76.9152 -22.4347 7.77157 -3.40999 23.4759 36.2415 -31.4801 -1.29165 -0.266708 -0.560472 0.0462048 0.000533403 0.662642 8.82827 12.2376 -18.4942 -0.018802 0.0268658 0.0164872 -18.7738 16.3662 21.1079 1.59028e-015 2.48481e-016 -0 141.795 -74.428 -171.55 -93.2081 7.5939 6.36619 -9.61215 73.211 -42.5826 2.23604 17.1235 11.0827 109.675 -5.73273 71.6226 32.5883 59.1594 70.1444 17.8181 23.9236 4.75345 21.2493 -19.082 -29.1271 -18.5026 21.5028 64.8617 -24.7942 -3.06564 -1.49873 -1.18447e-009 1.5602e-007 -4.87132e-009 
-84.8765 95.9189 -451.171 -15.728 -2.62838 -78.0014 -22.3456 7.24029 -3.58355 22.8269 38.4163 -30.8914 -0.390032 -0.228509 -0.518232 0.0462048 0.000533403 0.662642 10.6756 11.6912 -17.8025 -0.0182904 0.0257801 0.0132106 -19.3904 17.0982 21.8438 -1.59028e-015 -2.98177e-016 -7.95139e-016 141.211 -73.321 -173.16 -94.6092 18.484 9.13287 -1.34532 63.8078 -41.6568 1.83301 17.3665 10.6863 109.232 -5.40419 71.6385 32.6053 58.4082 70.9494 17.5489 23.5962 4.69315 21.8749 -19.5354 -30.2557 -17.3722 23.1324 64.8742 -29.322 -3.00191 -1.67006 -1.18446e-009 1.5602e-007 -4.87132e-009 
-85.7949 95.154 -450.074 -16.1687 -1.97095 -79.0338 -22.2955 6.80389 -3.54274 22.3098 40.311 -30.4124 0.43294 -0.117384 -0.500519 0.0462048 0.000533403 0.662642 12.3496 11.4613 -16.9515 -0.0177723 0.0230101 0.0132106 -19.5589 17.6784 22.2979 -1.59028e-015 5.96354e-016 3.97569e-016 141.168 -72.8232 -174.114 -96.8715 29.8634 10.5059 3.2692 52.0915 -38.7929 1.70554 17.3631 10.0465 108.822 -5.14174 71.5938 32.7198 57.7181 71.7901 17.7691 23.3597 4.37567 22.2398 -20.2657 -31.3671 -16.8922 25.1131 65.5717 -29.9424 -2.94287 -1.74489 -1.18446e-009 1.5602e-007 -4.87132e-009 
-86.7417 94.4109 -448.868 -16.563 -1.28019 -80.0142 -22.36 6.39397 -3.28159 22.0391 42.0498 -30.112 1.20439 -0.0479714 -0.478149 0.0462048 0.000533403 0.662642 13.8315 11.4969 -15.9844 -0.0170357 0.0202304 0.0132106 -19.33 18.1188 22.516 0 2.98177e-016 -0 141.965 -72.6689 -174.419 -99.6527 41.2576 10.9136 7.28557 42.0893 -33.3281 1.79433 17.1565 9.2227 108.444 -4.95836 71.4946 32.8812 57.0976 72.7183 17.6817 23.1013 4.17435 22.6461 -20.7574 -32.4272 -16.5392 26.912 66.543 -32.2283 -2.82919 -1.83962 -1.18446e-009 1.5602e-007 -4.87132e-009 
-87.6852 93.757 -447.577 -16.9012 -0.569464 -80.9445 -22.4896 6.04134 -2.83135 21.9167 43.491 -29.9015 1.89126 0.0315101 -0.466705 0.0462048 0.000533403 0.662642 15.1019 11.7477 -14.9349 -0.0159189 0.0174997 0.0132106 -18.7584 18.4256 22.5426 -4.77083e-015 1.98785e-016 3.97569e-016 143.678 -72.6749 -174.149 -102.939 52.3717 10.678 11.1884 31.0565 -28.2362 2.03622 16.7878 8.28212 108.108 -4.86743 71.3607 33.0429 56.5519 73.7622 17.8565 22.9055 3.83158 22.9348 -21.2744 -33.4291 -16.4653 28.7506 67.7976 -33.3301 -2.75736 -1.88993 -1.18446e-009 1.5602e-007 -4.87132e-009 
-88.6043 93.2102 -446.211 -17.1747 0.144796 -81.8257 -22.6737 5.74747 -2.21284 21.9138 44.5789 -29.7416 2.47573 0.122454 -0.467003 0.0462048 0.000533403 0.662642 16.1424 12.1667 -13.8321 -0.0145797 0.01514 0.0132106 -17.9016 18.599 22.4201 1.59028e-015 -1.98785e-016 3.97569e-016 146.397 -72.707 -173.262 -107.132 62.9561 10.3057 15.1893 21.4993 -21.3275 2.38696 16.2922 7.25816 107.809 -4.85287 71.1981 33.1638 56.0788 74.9505 17.8144 22.6838 3.59057 23.0973 -21.8233 -34.3569 -16.7468 30.411 69.3008 -32.964 -2.76738 -1.89028 -1.18446e-009 1.5602e-007 -4.8713e-009 
-89.4965 92.7514 -444.774 -17.3768 0.845456 -82.659 -22.9237 5.50081 -1.43863 22.0478 45.3263 -29.6302 2.95664 0.184305 -0.469158 0.0462048 0.000533403 0.662642 16.9469 12.7085 -12.7003 -0.0131759 0.0132532 0.0132106 -16.8256 18.6427 22.1869 -1.59028e-015 1.98785e-016 -3.97569e-016 149.921 -72.6761 -171.844 -106.331 68.2146 5.90528 17.7298 15.3668 -17.8341 2.80913 15.7049 6.20444 107.545 -4.9136 71.0233 33.2184 55.678 76.2799 17.8949 22.4648 3.30462 23.2633 -22.2403 -35.1742 -17.2399 31.7714 70.9216 -32.9086 -2.74935 -1.89114 -1.18446e-009 1.5602e-007 -4.87131e-009 
-90.3548 92.3891 -443.292 -17.5047 1.51404 -83.4452 -23.2228 5.31627 -0.530099 22.2841 45.697 -29.534 3.31976 0.217914 -0.472482 0.0462048 0.000533403 0.662642 17.5129 13.3339 -11.5589 -0.0118652 0.0116717 0.0132106 -15.5953 18.5623 21.8765 1.72418e-034 4.96962e-017 -1.98785e-016 153.906 -72.5292 -170.024 -101.307 70.0325 -2.25139 18.7925 12.3276 -15.4891 3.27484 15.0557 5.16639 107.317 -5.04257 70.8542 33.1986 55.3411 77.7235 17.8161 22.1985 3.1115 23.4223 -22.5608 -35.8602 -17.9286 32.9377 72.6173 -32.8633 -2.71862 -1.88529 -1.18447e-009 1.5602e-007 -4.87131e-009 
-91.1729 92.1313 -441.793 -17.5594 2.13118 -84.1836 -23.5598 5.20529 0.493885 22.5939 45.6784 -29.4325 3.55684 0.221014 -0.477457 0.0462048 0.000533403 0.662642 17.8351 14.0115 -10.424 -0.0108055 0.0103144 0.0132106 -14.2667 18.367 21.517 4.31046e-035 -2.48481e-017 9.93923e-017 158.009 -72.243 -167.995 -94.9778 69.5453 -11.5405 19.2743 10.4741 -14.6089 3.75729 14.3748 4.17757 107.134 -5.22745 70.7086 33.1111 55.0613 79.2389 17.8017 21.904 2.90394 23.5854 -22.7948 -36.3867 -18.8026 33.9214 74.3306 -32.8153 -2.67595 -1.8731 -1.18446e-009 1.5602e-007 -4.87131e-009 
-91.9576 91.9755 -440.276 -17.544 2.68018 -84.8648 -24.1752 5.30973 2.77383 24.1831 44.6795 -30.696 3.67578 0.190948 -0.49662 0.0462048 0.000533403 0.662642 17.9082 14.7144 -9.31449 -0.0101545 0.00910004 0.0132106 -12.8855 18.0685 21.13 -1.59028e-015 -2.23633e-016 -0 162.007 -71.8143 -165.902 -89.7562 67.6081 -19.71 19.1649 9.87756 -14.0009 4.2206 13.6919 3.25676 107.011 -5.45203 70.6031 32.9781 54.8257 80.7791 17.7059 21.5551 2.74594 23.6755 -22.8388 -36.7693 -20.3087 34.5371 76.2183 -32.3552 -2.61316 -1.83045 -1.18447e-009 1.5602e-007 -4.87131e-009 
-92.69 91.9082 -438.777 -17.4618 3.15023 -85.4798 -24.7616 5.44301 4.99268 25.612 43.3427 -31.7602 3.63761 0.138221 -0.514072 0.0462048 0.000533403 0.662642 17.7293 15.4198 -8.24351 -0.0104544 0.00827003 0.0132106 -11.4893 17.6812 20.7298 -3.18055e-015 -3.72721e-017 -4.96962e-017 165.766 -71.2565 -163.859 -86.3282 64.8535 -26.163 18.9481 9.64375 -13.9392 4.637 13.0321 2.4137 106.954 -5.70544 70.5483 32.8294 54.6224 82.2995 17.6729 21.1688 2.57389 23.705 -22.6832 -36.9675 -22.0764 34.6721 78.0863 -31.4813 -2.54905 -1.765 -1.18446e-009 1.5602e-007 -4.87132e-009 
-93.3608 91.9335 -437.343 -17.3395 3.52142 -86.0252 -25.3165 5.63536 7.14183 26.8358 41.7241 -32.6133 3.45928 0.0579581 -0.527327 0.0462048 0.000533403 0.662642 16.5613 17.2611 -7.01849 -0.0774536 0.0907701 0.0132106 -9.14414 16.1067 20.1329 -1.59028e-015 7.45443e-017 -0 169.253 -69.7325 -161.527 -86.5513 64.3556 -26.1186 19.0253 9.86721 -13.907 5.94539 11.3023 1.70481 106.859 -5.6883 70.5176 33.1536 54.5549 82.4276 17.8003 21.0165 2.29409 24.1367 -21.9485 -35.7209 -23.0603 34.1145 78.2594 -30.1559 -2.53842 -1.68647 -1.18447e-009 1.5602e-007 -4.87132e-009 
-93.9731 92.0067 -435.989 -17.2127 3.78284 -86.492 -24.3918 5.5547 8.46738 28.3076 39.7333 -32.9426 -16.0623 0.534453 -0.931888 0.0462048 0.000533403 0.662642 15.2561 18.8615 -5.856 -0.00506284 0.000750037 0.0132106 -7.19298 14.8457 19.6476 -0 -1.49089e-016 -0 171.84 -68.5354 -159.667 -86.9609 63.7721 -25.9403 19.1062 10.2032 -14.1019 6.9461 9.99586 1.07242 106.747 -5.75347 70.5105 33.5038 54.5272 82.5568 17.9368 20.8561 2.04808 24.8535 -20.8617 -33.2408 -23.3889 33.1214 76.9562 -28.4578 -2.61842 -1.63799 -1.18446e-009 1.5602e-007 -4.87132e-009 
-94.5141 91.9948 -434.743 -17.0996 3.93034 -86.8861 -23.225 6.25452 9.80631 28.7753 36.7799 -32.4639 -35.3968 1.53034 -1.17664 0.0462048 0.000533403 0.662642 13.8472 20.2312 -4.76478 -9.16723e-005 -0.00427998 0.0132106 -5.42754 13.6713 19.207 1.59028e-015 7.95139e-016 -0 174.088 -67.4411 -157.959 -87.4613 63.1928 -25.7136 19.0797 10.7973 -14.2143 7.92148 8.84807 0.531238 106.554 -5.90042 70.5207 33.8802 54.5316 82.6847 17.9968 20.7109 1.87201 25.7992 -19.7338 -29.707 -23.5328 32.083 74.5858 -26.5522 -2.86393 -1.70158 -1.18447e-009 1.5602e-007 -4.87132e-009 
-95.1151 92.5429 -433.427 -17.0179 3.97631 -87.2036 -24.2308 6.03425 11.9789 31.219 35.6073 -33.8444 -27.9169 0.775001 -1.42337 0.0462048 0.000533403 0.662642 12.3842 21.3897 -3.76097 -9.16723e-005 -0.00427998 0.0132106 -3.91319 12.6722 18.8008 -7.95139e-016 4.47266e-016 -7.95139e-016 176.028 -66.5325 -156.365 -87.9926 62.6671 -25.4973 19.0649 11.4198 -14.441 8.87611 7.91613 0.0724108 106.241 -6.1294 70.5401 34.2574 54.566 82.8345 18.0198 20.6103 1.76022 26.5745 -17.5047 -25.3505 -22.4363 29.6766 70.6158 -23.9218 -2.9631 -1.50856 -1.18447e-009 1.5602e-007 -4.87132e-009 
-95.6618 92.9761 -432.16 -16.9711 3.93797 -87.4368 -24.1631 6.21052 13.6289 32.6624 33.8664 -34.5745 -33.5736 1.2365 -1.4543 0.0462048 0.000533403 0.662642 10.9217 22.3496 -2.86307 -9.16723e-005 -0.00427998 0.0132106 -2.6457 11.8519 18.4092 -7.95139e-016 -3.72721e-016 3.97569e-016 177.714 -65.7992 -154.87 -88.5528 62.2264 -25.2919 18.9953 12.1545 -14.5866 9.83694 7.18181 -0.305997 105.802 -6.43417 70.5635 34.5985 54.6246 83.0389 17.9704 20.5546 1.71355 27.1179 -15.9059 -21.3976 -22.2976 27.7806 67.4702 -21.3734 -3.22891 -1.45981 -1.18446e-009 1.5602e-007 -4.87131e-009 
-96.2089 93.6336 -430.843 -16.9541 3.83001 -87.5803 -24.7307 5.9765 15.4066 34.5988 32.7884 -35.9721 -32.217 1.12295 -1.49772 0.0462048 0.000533403 0.662642 9.5054 23.1245 -2.0863 -9.16723e-005 -0.00427998 0.0132106 -1.61387 11.1994 18.0177 -0 -5.71506e-016 -0 179.15 -65.2117 -153.499 -89.1781 61.8876 -25.0605 18.9483 12.8509 -14.7745 10.7994 6.62485 -0.603593 105.263 -6.80414 70.5913 34.8702 54.6984 83.3189 17.8893 20.5304 1.70625 27.3275 -14.2382 -17.8657 -22.2531 25.6625 64.6408 -18.7281 -3.40552 -1.3314 -1.18446e-009 1.5602e-007 -4.87131e-009 
-96.7323 94.3274 -429.506 -16.9579 3.66434 -87.6338 -25.2144 5.64801 17.0223 36.1371 32.0369 -37.3697 -32.0589 1.19151 -1.51156 0.0462048 0.000533403 0.662642 8.16712 23.7319 -1.43883 -9.16723e-005 -0.00427998 0.0132106 -0.803971 10.6967 17.6188 -3.97569e-016 -5.2181e-016 3.97569e-016 -179.654 -64.736 -152.264 -89.8992 61.655 -24.7587 18.8974 13.5395 -14.8985 11.7347 6.22342 -0.823913 104.675 -7.22487 70.6261 35.0627 54.7748 83.667 17.7762 20.5098 1.72158 27.377 -12.7217 -14.7209 -22.5742 23.7469 62.2795 -16.2036 -3.60441 -1.22376 -1.18447e-009 1.5602e-007 -4.8713e-009 
-97.2352 95.0378 -428.157 -16.9738 3.44648 -87.604 -25.6908 5.182 18.5062 37.5451 31.4764 -38.8966 -31.9595 1.28202 -1.52177 0.0462048 0.000533403 0.662642 6.91927 24.1924 -0.918293 -9.16723e-005 -0.00427998 0.0132106 -0.200118 10.3237 17.2102 7.95139e-016 -1.75179e-015 -0 -178.65 -64.3448 -151.14 -90.704 61.5186 -24.3783 18.8953 14.1324 -15.0474 12.6084 5.95492 -0.979634 104.091 -7.67701 70.67 35.1936 54.8425 84.0479 17.6692 20.477 1.74256 27.2952 -11.2932 -11.9471 -23.1243 21.9961 60.3086 -13.816 -3.79417 -1.11964 -1.18447e-009 1.5602e-007 -4.87132e-009 
-97.7245 95.7235 -426.807 -16.9948 3.18467 -87.4918 -26.1391 4.59373 19.8449 38.9148 31.0949 -40.5284 -31.8798 1.3928 -1.53035 0.0462048 0.000533403 0.662642 5.77191 24.5256 -0.525247 -9.16723e-005 -0.00427998 0.0132106 0.215713 10.0605 16.7929 3.36216e-033 4.84538e-016 -3.97569e-016 -177.768 -64.0169 -150.079 -91.5469 61.4613 -23.9397 18.9208 14.6704 -15.1593 13.3955 5.79743 -1.09032 103.552 -8.13908 70.7239 35.296 54.893 84.4144 17.5655 20.4286 1.77578 27.1094 -9.94281 -9.53222 -23.8291 20.4077 58.685 -11.5826 -3.96999 -1.019 -1.18446e-009 1.5602e-007 -4.87132e-009 
